<?xml version="1.0" encoding="UTF-8"?>
<svg width="69px" height="68px" viewBox="0 0 69 68" version="1.1" xmlns="http://www.w3.org/2000/svg" xmlns:xlink="http://www.w3.org/1999/xlink">
    <!-- Generator: Sketch 43.1 (39012) - http://www.bohemiancoding.com/sketch -->
    <title>investment</title>
    <desc>Created with Sketch.</desc>
    <defs></defs>
    <g id="Homepage" stroke="none" stroke-width="1" fill="none" fill-rule="evenodd">
        <g id="Home" transform="translate(-685.000000, -666.000000)" fill-rule="nonzero" fill="#009CDE">
            <g id="Section-(2)" transform="translate(79.000000, 612.000000)">
                <g id="2" transform="translate(455.000000, 54.000000)">
                    <g id="investment" transform="translate(151.000000, 0.000000)">
                        <path d="M58.3832577,34 C58.3832577,20.6950323 47.5118545,9.87096774 34.1486979,9.87096774 C20.7855413,9.87096774 9.9141381,20.6950323 9.9141381,34 C9.9141381,47.3049677 20.7855413,58.1290323 34.1486979,58.1290323 C47.5118545,58.1290323 58.3832577,47.3049677 58.3832577,34 Z M34.1497995,55.9354839 C31.8464147,55.9354839 29.6267494,55.5790323 27.5392725,54.9242581 L27.5392725,41.6774194 L25.3361307,41.6774194 L25.3361307,54.0918065 C24.1794813,53.5872903 23.0746057,52.9884516 22.031418,52.3007742 L22.031418,41.6774194 C22.031418,38.6536129 24.5022415,36.1935484 27.5392725,36.1935484 L40.7581233,36.1935484 C43.7951543,36.1935484 46.2659778,38.6536129 46.2659778,41.6774194 L39.2357523,41.6774194 L37.3366441,37.8968387 L35.3659338,38.8784516 L36.7726398,41.6774194 L29.7424143,41.6774194 L29.7424143,43.8709677 L31.9455561,43.8709677 L31.9455561,44.9677419 L32.7882579,50.9177419 C33.0195877,52.5278065 34.4251922,53.7419355 36.0599234,53.7419355 L43.6894035,53.7419355 C40.7977799,55.1326452 37.5701771,55.9354839 34.1497995,55.9354839 Z M25.3361307,25.2258065 C25.3361307,20.3879355 29.2896687,16.4516129 34.1486979,16.4516129 C39.0077272,16.4516129 42.9612651,20.3879355 42.9612651,25.2258065 C42.9612651,30.0636774 39.0077272,34 34.1486979,34 C29.2896687,34 25.3361307,30.0636774 25.3361307,25.2258065 Z M47.3675487,44.889871 L46.5468784,50.6073548 C46.47087,51.1436774 46.0016008,51.5483871 45.4574248,51.5483871 L36.0599234,51.5483871 C35.5157474,51.5483871 35.0464782,51.1436774 34.9704698,50.6073548 L34.1486979,44.889871 L34.1486979,43.8709677 L37.8742107,43.8709677 L39.7733189,47.6515484 L41.7440293,46.6699355 L40.3373232,43.8709677 L47.3675487,43.8709677 L47.3675487,44.889871 Z M48.8139113,50.3243871 L49.5607764,45.1234839 L49.5651827,43.8709677 L51.7738323,43.8709677 L51.7738323,41.6774194 L48.4691196,41.6774194 C48.4691196,37.4449677 45.0090854,34 40.7581233,34 L40.7294825,34 C43.4151123,31.9983871 45.1644069,28.8155484 45.1644069,25.2258065 C45.1644069,19.1781935 40.2227599,14.2580645 34.1486979,14.2580645 C28.074636,14.2580645 23.1329889,19.1781935 23.1329889,25.2258065 C23.1329889,28.8155484 24.8822835,31.9983871 27.5679134,34 L27.5392725,34 C23.2883104,34 19.8282762,37.4449677 19.8282762,41.6774194 L19.8282762,50.635871 C15.1168575,46.6096129 12.1172799,40.6519355 12.1172799,34 C12.1172799,21.9047742 22.000574,12.0645161 34.1486979,12.0645161 C46.2968218,12.0645161 56.1801159,21.9047742 56.1801159,34 C56.1801159,40.4852258 53.322641,46.3047097 48.8139113,50.3243871 Z" id="Shape"></path>
                        <path d="M62.7653068,33.0304516 L61.1977714,31.9907097 L59.9761293,33.8157419 L64.0321133,36.5083226 L67.9757371,32.581871 L66.4181159,31.0310323 L64.9552297,32.4875484 C64.1598955,16.2541935 50.6469253,3.29032258 34.1486979,3.29032258 L34.1486979,5.48387097 C49.6158549,5.48387097 62.24867,17.7545806 62.7653068,33.0304516 Z" id="Shape"></path>
                        <path d="M5.53208906,34.9695484 L7.09962445,36.0092903 L8.32126658,34.1842581 L4.26528253,31.4916774 L0.321658703,35.418129 L1.87927996,36.9689677 L3.34216611,35.5124516 C4.1375003,51.7458065 17.6504705,64.7096774 34.1486979,64.7096774 L34.1486979,62.516129 C18.6815409,62.516129 6.04872581,50.2454194 5.53208906,34.9695484 Z" id="Shape"></path>
                        <path d="M8.8125672,17.5483871 C13.6715964,17.5483871 17.6251344,13.6120645 17.6251344,8.77419355 C17.6251344,3.93632258 13.6715964,0 8.8125672,0 C3.95353796,0 0,3.93632258 0,8.77419355 C0,13.6120645 3.95353796,17.5483871 8.8125672,17.5483871 Z M8.8125672,2.19354839 C12.4576653,2.19354839 15.4219926,5.14496774 15.4219926,8.77419355 C15.4219926,12.4034194 12.4576653,15.3548387 8.8125672,15.3548387 C5.16746909,15.3548387 2.2031418,12.4034194 2.2031418,8.77419355 C2.2031418,5.14496774 5.16746909,2.19354839 8.8125672,2.19354839 Z" id="Shape"></path>
                        <path d="M7.7109963,13.1053548 L7.7109963,14.2580645 L9.9141381,14.2580645 L9.9141381,13.1053548 C11.1699289,12.8509032 12.1172799,11.7431613 12.1172799,10.4193548 C12.1172799,8.90690323 10.8824189,7.67741935 9.36335265,7.67741935 L8.26178175,7.67741935 C7.95884976,7.67741935 7.7109963,7.43064516 7.7109963,7.12903226 C7.7109963,6.82741935 7.95884976,6.58064516 8.26178175,6.58064516 L9.36335265,6.58064516 C9.66628465,6.58064516 9.9141381,6.82741935 9.9141381,7.12903226 L9.9141381,7.67741935 L12.1172799,7.67741935 L12.1172799,7.12903226 C12.1172799,5.80412903 11.1699289,4.69748387 9.9141381,4.44303226 L9.9141381,3.29032258 L7.7109963,3.29032258 L7.7109963,4.44303226 C6.45520548,4.69748387 5.5078545,5.80412903 5.5078545,7.12903226 C5.5078545,8.64148387 6.74271548,9.87096774 8.26178175,9.87096774 L9.36335265,9.87096774 C9.66628465,9.87096774 9.9141381,10.1177419 9.9141381,10.4193548 C9.9141381,10.7209677 9.66628465,10.9677419 9.36335265,10.9677419 L8.26178175,10.9677419 C7.95884976,10.9677419 7.7109963,10.7209677 7.7109963,10.4193548 L7.7109963,9.87096774 L5.5078545,9.87096774 L5.5078545,10.4193548 C5.5078545,11.7442581 6.45520548,12.8509032 7.7109963,13.1053548 Z" id="Shape"></path>
                        <path d="M59.4848286,50.4516129 C54.6257994,50.4516129 50.6722614,54.3879355 50.6722614,59.2258065 C50.6722614,64.0636774 54.6257994,68 59.4848286,68 C64.3438579,68 68.2973958,64.0636774 68.2973958,59.2258065 C68.2973958,54.3879355 64.3438579,50.4516129 59.4848286,50.4516129 Z M59.4848286,65.8064516 C55.8397305,65.8064516 52.8754032,62.8550323 52.8754032,59.2258065 C52.8754032,55.5965806 55.8397305,52.6451613 59.4848286,52.6451613 C63.1299267,52.6451613 66.094254,55.5965806 66.094254,59.2258065 C66.094254,62.8550323 63.1299267,65.8064516 59.4848286,65.8064516 Z" id="Shape"></path>
                        <path d="M60.5863995,54.8946452 L60.5863995,53.7419355 L58.3832577,53.7419355 L58.3832577,54.8946452 C57.1274669,55.1490968 56.1801159,56.2568387 56.1801159,57.5806452 C56.1801159,59.0930968 57.4149769,60.3225806 58.9340432,60.3225806 L60.0356141,60.3225806 C60.3385461,60.3225806 60.5863995,60.5693548 60.5863995,60.8709677 C60.5863995,61.1725806 60.3385461,61.4193548 60.0356141,61.4193548 L58.9340432,61.4193548 C58.6311112,61.4193548 58.3832577,61.1725806 58.3832577,60.8709677 L58.3832577,60.3225806 L56.1801159,60.3225806 L56.1801159,60.8709677 C56.1801159,62.195871 57.1274669,63.3025161 58.3832577,63.5569677 L58.3832577,64.7096774 L60.5863995,64.7096774 L60.5863995,63.5569677 C61.8421904,63.3025161 62.7895413,62.1947742 62.7895413,60.8709677 C62.7895413,59.3585161 61.5546804,58.1290323 60.0356141,58.1290323 L58.9340432,58.1290323 C58.6311112,58.1290323 58.3832577,57.8822581 58.3832577,57.5806452 C58.3832577,57.2790323 58.6311112,57.0322581 58.9340432,57.0322581 L60.0356141,57.0322581 C60.3385461,57.0322581 60.5863995,57.2790323 60.5863995,57.5806452 L60.5863995,58.1290323 L62.7895413,58.1290323 L62.7895413,57.5806452 C62.7895413,56.2557419 61.8421904,55.1490968 60.5863995,54.8946452 Z" id="Shape"></path>
                        <rect id="Rectangle-path" x="4.4062836" y="57.0322581" width="2.2031418" height="2.19354839"></rect>
                        <rect id="Rectangle-path" transform="translate(2.394818, 59.411573) rotate(45.000000) translate(-2.394818, -59.411573) " x="1.29325757" y="58.3148094" width="2.20312067" height="2.19352735"></rect>
                        <rect id="Rectangle-path" x="0" y="61.4193548" width="2.2031418" height="2.19354839"></rect>
                        <rect id="Rectangle-path" transform="translate(2.394892, 65.618839) rotate(-135.000000) translate(-2.394892, -65.618839) " x="1.2933321" y="64.5220751" width="2.20312067" height="2.19352735"></rect>
                        <rect id="Rectangle-path" x="4.4062836" y="65.8064516" width="2.2031418" height="2.19354839"></rect>
                        <rect id="Rectangle-path" transform="translate(8.618073, 65.619590) rotate(-135.000000) translate(-8.618073, -65.619590) " x="7.51651246" y="64.5228264" width="2.20312067" height="2.19352735"></rect>
                        <rect id="Rectangle-path" x="8.8125672" y="61.4193548" width="2.2031418" height="2.19354839"></rect>
                        <rect id="Rectangle-path" transform="translate(8.621271, 59.412244) rotate(45.000000) translate(-8.621271, -59.412244) " x="7.51971075" y="58.3154799" width="2.20312067" height="2.19352735"></rect>
                        <rect id="Rectangle-path" x="61.6879704" y="0" width="2.2031418" height="2.19354839"></rect>
                        <rect id="Rectangle-path" transform="translate(59.672364, 2.383130) rotate(45.000000) translate(-59.672364, -2.383130) " x="58.570804" y="1.28636653" width="2.20312067" height="2.19352735"></rect>
                        <rect id="Rectangle-path" x="57.2816868" y="4.38709677" width="2.2031418" height="2.19354839"></rect>
                        <rect id="Rectangle-path" transform="translate(59.672449, 8.587690) rotate(-135.000000) translate(-59.672449, -8.587690) " x="58.5708888" y="7.49092634" width="2.20312067" height="2.19352735"></rect>
                        <rect id="Rectangle-path" x="61.6879704" y="8.77419355" width="2.2031418" height="2.19354839"></rect>
                        <rect id="Rectangle-path" transform="translate(65.904977, 8.585978) rotate(135.000000) translate(-65.904977, -8.585978) " x="64.8034168" y="7.48921466" width="2.20312067" height="2.19352735"></rect>
                        <rect id="Rectangle-path" x="66.094254" y="4.38709677" width="2.2031418" height="2.19354839"></rect>
                        <rect id="Rectangle-path" transform="translate(65.903627, 2.382247) rotate(45.000000) translate(-65.903627, -2.382247) " x="64.8020664" y="1.28548374" width="2.20312067" height="2.19352735"></rect>
                    </g>
                </g>
            </g>
        </g>
    </g>
</svg>