<?xml version="1.0" encoding="UTF-8"?>
<svg width="16px" height="17px" viewBox="0 0 16 17" version="1.1" xmlns="http://www.w3.org/2000/svg" xmlns:xlink="http://www.w3.org/1999/xlink">
    <!-- Generator: Sketch 43.1 (39012) - http://www.bohemiancoding.com/sketch -->
    <title>Clock Icon</title>
    <desc>Created with Sketch.</desc>
    <defs></defs>
    <g id="Homepage" stroke="none" stroke-width="1" fill="none" fill-rule="evenodd">
        <g id="Home" transform="translate(-672.000000, -1783.000000)" fill="#A2A2A2">
            <g id="Section-(3)" transform="translate(-288.000000, 1262.000000)">
                <g id="Group" transform="translate(960.000000, 514.000000)">
                    <path d="M10.1064399,17.5556262 L7.57736973,16.0282928 C7.21818272,15.8123934 7.04719986,15.3929319 7.1074744,14.9895086 L7.1074744,12.3469009 C7.1074744,11.8534167 7.50479427,11.4549283 7.99560117,11.4549283 C8.48640808,11.4549283 8.88495804,11.8534167 8.88495804,12.3469009 L8.88495804,14.4664154 L11.0806731,15.7926541 C11.5456481,16.0727063 11.7055601,16.6969638 11.4361699,17.1830457 C11.1680097,17.6703613 10.5726449,17.8369122 10.1064399,17.5556262 M7.99560117,8.78271154 C4.56118295,8.78271154 1.77748365,11.5745982 1.77748365,15.0191176 C1.77748365,18.4636371 4.56118295,21.2567575 7.99560117,21.2567575 C11.4300194,21.2567575 14.2149488,18.4636371 14.2149488,15.0191176 C14.2149488,11.5745982 11.4300194,8.78271154 7.99560117,8.78271154 M7.99560117,23.0382353 C3.58079923,23.0382353 0,19.448138 0,15.0191176 C0,10.5900973 3.58079923,7 7.99560117,7 C12.4116332,7 15.9912023,10.5900973 15.9912023,15.0191176 C15.9912023,19.448138 12.4116332,23.0382353 7.99560117,23.0382353" id="Clock-Icon"></path>
                </g>
            </g>
        </g>
    </g>
</svg>