<?xml version="1.0" encoding="UTF-8"?>
<svg width="43px" height="68px" viewBox="0 0 43 68" version="1.1" xmlns="http://www.w3.org/2000/svg" xmlns:xlink="http://www.w3.org/1999/xlink">
    <!-- Generator: Sketch 43.1 (39012) - http://www.bohemiancoding.com/sketch -->
    <title>Shape</title>
    <desc>Created with Sketch.</desc>
    <defs></defs>
    <g id="Homepage" stroke="none" stroke-width="1" fill="none" fill-rule="evenodd">
        <g id="Home" transform="translate(-1122.000000, -666.000000)" fill-rule="nonzero" fill="#009CDE">
            <g id="Section-(2)" transform="translate(79.000000, 612.000000)">
                <g id="3" transform="translate(885.000000, 54.000000)">
                    <g id="augmented-reality" transform="translate(158.000000, 0.000000)">
                        <g id="Shape">
                            <path d="M26.025759,37.0596031 C25.5613613,36.7059767 24.8920981,36.7872062 24.5304037,37.2409805 C23.9672267,37.947572 22.7832289,38.4041245 21.513848,38.4041245 C20.2589457,38.4041245 19.0806312,37.954716 18.511771,37.2591051 C18.1443934,36.8098288 17.4739124,36.736537 17.0142506,37.0958521 C16.5547242,37.455035 16.4798955,38.1105603 16.8472731,38.5601012 C17.8342537,39.7669027 19.5787221,40.4875175 21.5137127,40.4875175 C23.4446439,40.4875175 25.2445911,39.734358 26.2111392,38.5216031 C26.5731043,38.0678288 26.4898861,37.4132296 26.025759,37.0596031 Z"></path>
                            <ellipse id="Oval" cx="5.81566164" cy="26.9625292" rx="1" ry="1"></ellipse>
                            <path d="M34.4592059,21.1964202 C33.5364995,20.6099533 31.9404705,20.2600311 30.189507,20.2600311 C28.4151341,20.2600311 26.8070622,20.6180233 25.8876034,21.217323 C25.3980372,21.5365525 25.2658354,22.1833463 25.5922129,22.6619922 C25.7977549,22.9630973 26.135634,23.1259533 26.4798729,23.1259533 C26.6829793,23.1259533 26.8882506,23.0693307 27.0699774,22.9507938 C27.5335632,22.6486304 28.6780493,22.3435564 30.1896423,22.3435564 C31.6848623,22.3435564 32.8281305,22.6447938 33.2979409,22.9433852 C33.7911605,23.2569261 34.4513576,23.12 34.7717813,22.6376498 C35.0926108,22.1551673 34.9525608,21.5099611 34.4592059,21.1964202 Z"></path>
                            <path d="M17.1597132,21.217323 C16.2403897,20.6180233 14.6321825,20.2600311 12.8578096,20.2600311 C11.1068461,20.2600311 9.51068182,20.6102179 8.58811077,21.1965525 C8.09475582,21.5100934 7.95484112,22.1552996 8.27553536,22.6376498 C8.59636493,23.1198677 9.25629144,23.2565292 9.74951108,22.9432529 C10.2193214,22.6446615 11.3624543,22.3434241 12.8576743,22.3434241 C14.3694026,22.3434241 15.5137534,22.6484981 15.9773392,22.9506615 C16.159066,23.0691984 16.3643374,23.125821 16.5674437,23.125821 C16.9116826,23.125821 17.2494264,22.9630973 17.4549684,22.6618599 C17.7814812,22.1833463 17.6494147,21.5365525 17.1597132,21.217323 Z"></path>
                            <ellipse id="Oval" cx="29.229048" cy="28.6487704" rx="1.43635841" ry="1.40431907"></ellipse>
                            <ellipse id="Oval" cx="13.7982421" cy="28.6487704" rx="1.43635841" ry="1.40431907"></ellipse>
                            <path d="M32.8706192,43.3468249 C33.33637,43.6984669 34.0052273,43.6144591 34.3652979,43.1592296 C35.9185676,41.1931829 36.9549378,38.9535486 37.4355732,36.5670661 C41.2001448,35.5522257 43.1662577,32.0658366 42.8980652,29.0614008 C42.8079461,28.0523813 42.4784564,27.1808171 41.958174,26.4883813 C42.8822335,22.2058366 43.5448663,15.1388638 39.3309168,10.9648016 C41.028296,8.65227237 41.3797065,6.57721401 41.394997,6.48262257 C41.4522349,6.12661479 41.3173268,5.76690272 41.0380386,5.53181323 C40.7587505,5.29659144 40.3748646,5.21919844 40.0233187,5.32688716 C38.5113198,5.79111284 36.8937759,5.97328405 35.3470012,5.85395331 C33.2773731,5.69453696 31.5625384,4.53959533 29.7470301,3.31705058 C28.1227205,2.22322957 26.4430675,1.09223346 24.3944131,0.600490272 C20.6501386,-0.298326848 16.5223842,0.108879377 13.0698467,1.71746304 C12.5387392,1.96498833 12.3131707,2.58664591 12.5663432,3.10603891 C12.8193804,3.62529961 13.4549504,3.84596887 13.9865993,3.59831128 C17.0028843,2.19293385 20.6114388,1.83785214 23.8863089,2.62382101 C25.5558134,3.02454475 27.0044854,3.99996109 28.5381346,5.03279377 C30.5054652,6.35747082 32.539641,7.7271284 35.1792118,7.93086381 C36.3560379,8.02161868 37.56561,7.96407004 38.7529906,7.76470039 C38.6631421,7.77964981 38.3350056,8.60464591 38.2719492,8.71498054 C38.0450276,9.11239689 37.7923963,9.49552529 37.516491,9.86198444 C36.4737611,11.2464591 35.0946405,12.3728249 33.5546316,13.1950428 C32.266442,13.882716 30.8721663,14.3625525 29.4441973,14.6848249 C27.9796936,15.0152996 26.4639058,15.2923268 24.9551544,15.1598988 C23.5296211,15.0347471 22.1576722,14.5559689 20.8184693,14.0890973 C19.11676,13.4958833 17.4147802,12.8816342 15.6214634,12.6106926 C14.7187835,12.4742957 13.8021662,12.4294475 12.8912322,12.5043268 C12.0430839,12.5739144 11.2172623,12.7542335 10.4098435,13.0134008 C10.2696582,13.0583813 8.67822991,13.6642957 8.70948745,13.737323 C7.56134792,11.0466926 8.2739116,8.08168093 10.6862901,5.79521401 C11.1087405,5.39475486 11.119295,4.7352607 10.7096994,4.32223346 C10.2999685,3.90907393 9.62542811,3.89888716 9.20311303,4.2993463 C7.68191272,5.74110506 6.69628534,7.40221012 6.26747518,9.13449027 C1.32255932,11.6167549 -0.59348733,17.34 0.847471761,25.3475953 C0.617708541,25.8401323 0.488618957,26.3866459 0.488618957,26.9625292 C0.488618957,27.1294864 0.500526592,27.2935331 0.521500266,27.4549339 C-0.139102821,29.0244903 -0.00500661906,31.0335331 0.898214522,32.794786 C1.85732036,34.6651829 3.54455098,36.0077198 5.59455851,36.5644202 C6.72023592,42.1040389 10.8045546,46.6138677 16.163802,48.4485447 L16.163802,51.3303424 C15.2497557,51.4685914 14.3528943,51.6827782 13.4841783,51.9710506 C13.4829604,51.9714475 13.481472,51.9717121 13.4801188,51.9721089 L13.3346563,52.0214553 C6.91414092,54.2217977 2.600465,60.1714008 2.600465,66.8264047 C2.600465,67.4017588 3.07744695,67.8681012 3.66592766,67.8681012 L39.3619037,67.8681012 C39.9503844,67.8681012 40.4273664,67.4016265 40.4273664,66.8264047 C40.4273664,60.1712685 36.1130139,54.2217977 29.6914161,52.0215875 C28.7769638,51.708179 27.829495,51.4767938 26.8638941,51.3303424 L26.8638941,48.4519844 C28.3649326,47.9396031 29.79006,47.210786 31.1003057,46.271751 C31.5749873,45.9316187 31.6775554,45.2796654 31.3297983,44.8157043 C30.9820413,44.3517432 30.3150784,44.2513307 29.8405321,44.591463 C28.514184,45.5421401 27.0526572,46.2459533 25.5080475,46.6908638 C25.5046647,46.6917899 25.5012818,46.6921868 25.497899,46.6932451 C20.8620404,48.0259922 15.7293086,46.8894397 12.1314439,43.7474163 C9.67874184,41.6055486 8.03630016,38.6449027 7.56229512,35.4612062 C7.53022569,35.2456965 7.5032982,35.0292607 7.48178327,34.812428 C7.47664134,34.760965 7.47231129,34.240249 7.43794153,34.2247704 C8.16769008,34.5539222 8.97267324,34.7235253 9.77616794,34.7235253 L13.5128648,34.7235253 C15.3632842,34.7235253 17.1705384,33.7764202 18.189047,32.2650739 C18.9568188,31.1258755 19.1032286,29.7854553 19.3404341,28.4751984 C19.8619344,27.9903346 20.6719242,27.6965058 21.5241319,27.6965058 C22.3747159,27.6965058 23.1600785,27.9752529 23.6837438,28.4519144 L23.6990343,28.5363191 C23.6990343,28.5363191 24.0005139,30.2017899 24.0005139,30.2021868 C24.4645058,32.7659455 26.8546928,34.723393 29.5153725,34.723393 L33.2520694,34.723393 C33.6167407,34.723393 33.9876365,34.704607 34.3425652,34.6170272 C34.432549,34.5948016 35.189631,34.3442335 35.1959907,34.3851128 L35.4283249,35.7146848 C35.0553995,37.9543191 34.1241683,40.0562335 32.6790145,41.8853541 C32.3190792,42.3408482 32.4050036,42.9950506 32.8706192,43.3468249 Z M30.180035,54.6222568 C30.1918073,54.5727782 30.2050681,54.5239611 30.2158932,54.4743502 C34.778547,56.5336654 37.8696606,60.8712451 38.2553056,65.7845759 L4.77211985,65.7845759 C5.16155362,60.8234864 8.3086873,56.449393 12.9414337,54.4156109 C13.5580597,57.3439767 15.7935828,59.8476732 18.6944449,60.8086693 C19.6249995,61.1170506 20.6022374,61.279642 21.5850232,61.279642 C24.1730393,61.2795097 26.635484,60.0824981 28.2949753,58.2042957 C29.1965726,57.1837665 29.8610998,55.9621479 30.180035,54.6222568 Z M18.2948626,52.2500623 L18.2948626,49.0220467 C20.4114447,49.4397043 22.6155749,49.4391751 24.7328335,49.0242957 L24.7328335,52.24993 C24.7328335,52.7874475 25.1512244,53.2367237 25.6985697,53.2869961 C26.544553,53.364786 27.3784934,53.5169261 28.1876713,53.7406381 C28.1819881,53.7739767 28.1764402,53.8073152 28.1703511,53.8405214 C27.8970167,55.3038444 27.0925748,56.6697977 25.9333395,57.6331751 C24.7290447,58.6338599 23.1654911,59.1961167 21.5847526,59.1961167 C20.3468999,59.1961167 19.0850965,58.8487082 18.035195,58.208 C17.0457788,57.60407 16.2310531,56.7494397 15.6787012,55.7455798 C15.3456934,55.1405914 15.1144417,54.4780545 14.9927944,53.8014942 C14.9868406,53.7688171 14.9816986,53.7357432 14.9762861,53.7029339 C15.7413516,53.4999922 16.5294205,53.3606848 17.3288558,53.287393 C17.876201,53.2371206 18.2948626,52.7877121 18.2948626,52.2500623 Z M37.7229802,34.2559922 C37.7359704,33.9939144 37.7446305,33.7310428 37.7446305,33.466716 L37.7446305,32.5182879 C37.745307,32.3416732 37.9435421,32.1995875 38.0413741,32.0703346 C38.8096872,31.0565525 38.8746379,29.6071206 39.0927641,28.400716 C39.1770648,27.9354319 39.1678634,27.4491128 39.065566,26.9871362 C39.0616419,26.969144 39.0582591,26.9506226 39.0540643,26.9324981 C39.8028922,27.1538288 40.6407566,27.7408249 40.7748528,29.2421167 C40.9190976,30.8587704 40.0315729,33.2186615 37.7229802,34.2559922 Z M36.998103,13.4138599 C37.3055364,13.1617043 37.6020095,12.8968482 37.8860336,12.6199533 C37.9057895,12.6006381 37.9268985,12.5827782 37.9466543,12.563463 C39.3858543,14.0684591 40.2280488,16.2064903 40.4536173,18.9352218 C40.6327731,21.102358 40.3920494,23.2974086 40.0702727,25.0644825 C39.3470192,24.7828249 38.5612506,24.6904825 37.787525,24.7338755 C37.7730464,24.7346693 37.7589738,24.7342724 37.7444952,24.7351984 L37.7444952,22.4296809 C37.7444952,20.2958833 37.3032361,18.1632763 36.4442627,16.2010661 C36.1827006,15.6038833 35.8835213,15.0196654 35.5491604,14.4582023 C36.0534757,14.1397665 36.5381706,13.7911673 36.998103,13.4138599 Z M2.82833383,17.1524047 C3.32155346,14.7663191 4.40014158,12.9480467 6.04298921,11.7247082 C6.11592347,12.7432529 6.37897394,13.7610039 6.83525284,14.750179 C6.84973144,14.7816654 6.86488662,14.8131518 6.87990647,14.8446381 C6.9264545,14.9428016 6.97476161,15.0405681 7.02523374,15.1379377 C7.03700606,15.1609572 7.04742524,15.1843735 7.05946819,15.2072607 C5.89590286,17.4327393 5.28320093,19.9302179 5.28320093,22.4294163 L5.28320093,23.0561012 C4.98848698,23.030965 4.67428781,23.0486926 4.37849134,23.0580856 C4.21273165,23.0632451 2.68463033,23.2462101 2.71182845,23.4627782 C2.47326982,21.5536187 2.38964575,19.2752218 2.82833383,17.1524047 Z M2.80343605,31.8609105 C2.5338905,31.3351673 2.35947072,30.7762179 2.28288298,30.2294397 C2.29167839,30.2918833 2.62509216,30.426428 2.68476564,30.4554008 C2.9911166,30.6050272 3.31681747,30.7140389 3.65131375,30.7821712 C3.89203741,30.8313852 4.13736174,30.8594319 4.38322733,30.8663113 C4.39770593,30.8667082 4.4119139,30.8682957 4.42639251,30.868428 C4.42720439,30.8713385 4.42842222,30.8741167 4.42936941,30.8770272 C4.45115497,30.9454241 4.47429367,31.0128949 4.49851488,31.0798366 C4.49986802,31.0835409 4.50108585,31.0875097 4.50243899,31.091214 C4.69120206,31.6096809 4.95614693,32.0889883 5.28306562,32.5182879 C5.28306562,32.9671673 5.27399958,33.4171051 5.28834287,33.8658521 C5.28915475,33.8978677 5.28049465,34.2443502 5.3030921,34.2546693 C3.89569088,33.6175331 3.15295218,32.5423658 2.80343605,31.8609105 Z M5.27535272,28.7855642 C4.91284644,28.7855642 4.53450841,28.8140078 4.17565561,28.7588405 C3.5292605,28.6593541 2.96811322,28.1944669 2.73848531,27.598607 C2.66189757,27.3997665 2.61940897,27.1781712 2.61940897,26.9625292 C2.61940897,26.6283502 2.71345222,26.3158677 2.87474654,26.046249 C2.87542311,26.0450584 2.87650562,26.0438677 2.87731751,26.042677 C3.12967817,25.6214475 3.55429359,25.3146537 4.03682342,25.1932062 C4.18147411,25.1568249 4.33464959,25.1396265 4.48403628,25.1396265 C4.4841716,25.1397588 7.14782825,25.1397588 7.15161704,25.1398911 C7.4348293,25.1404202 7.72480727,25.2078911 7.97797982,25.332249 C8.60272469,25.6391751 9.01245556,26.2771051 9.01245556,26.9625292 C9.01245556,27.9677121 8.17594424,28.7855642 7.14782825,28.7855642 L5.27535272,28.7855642 L5.27535272,28.7855642 Z M17.2909678,28.0396809 C17.2590337,28.6453307 17.0336006,29.2618288 16.9291381,29.8389027 C16.6353714,31.4620389 15.1984717,32.64 13.5127295,32.64 C11.4149561,32.64 8.71801224,33.2316265 7.15391738,31.4679922 C6.99005209,31.2833074 6.84891956,31.0819533 6.73024916,30.8690895 L7.14796356,30.8690895 C9.35101126,30.8690895 11.1435162,29.1167004 11.1435162,26.9626615 C11.1435162,26.9191362 11.1416218,26.8760078 11.1401334,26.8327471 C11.1325558,26.6104903 11.1071167,26.3927315 11.0631397,26.181323 L15.6632754,26.181323 C16.3846345,26.181323 17.0394191,26.6733307 17.2254758,27.3535953 C17.287179,27.5788949 17.3030108,27.808428 17.2909678,28.0396809 Z M24.4926511,25.4076576 C24.2921157,25.6415564 24.1254088,25.8966226 23.9921245,26.1650506 C23.2537158,25.8090428 22.4034025,25.6128482 21.5234553,25.6128482 C20.6355247,25.6128482 19.7802047,25.8116887 19.0388191,26.1724591 C18.9048583,25.9011206 18.7370689,25.6436732 18.5345038,25.4075253 C17.8205869,24.5752529 16.7739329,24.09793 15.6628694,24.09793 L9.86425737,24.09793 C9.82366317,24.09793 9.69254387,23.9546537 9.65952725,23.9284591 C9.41826234,23.7375564 9.14384549,23.5676887 8.85914477,23.4349961 C8.4157207,23.2282179 7.93670904,23.1041245 7.44700757,23.0684047 C7.4357765,23.0676109 7.42481607,23.0654942 7.41372032,23.064965 L7.41372032,22.4295486 L7.41399094,22.4295486 C7.41399094,21.2879689 7.56337763,20.1297198 7.85132588,19.0237276 C8.13034341,17.9516031 8.54250994,16.9112296 9.0764591,15.9358132 C9.10203345,15.9203346 9.12774312,15.9041946 9.15331747,15.8889805 C10.3765563,15.161751 11.7593303,14.6726537 13.1931178,14.5738288 C14.5420633,14.4809572 15.8877614,14.7176342 17.1789278,15.0854163 C18.0411488,15.3309572 18.8859143,15.6282257 19.7317623,15.9219222 C21.8147864,16.6454475 23.9577547,17.4131595 26.2073504,17.2514942 C26.2099214,17.2513619 26.2123571,17.2510973 26.214928,17.2508327 C27.5435765,17.1553152 28.8680302,16.9654708 30.1632561,16.6581479 C30.4551284,16.5889572 33.7248566,15.539323 33.6810149,15.4661634 C33.7010413,15.4995019 33.7225563,15.5323113 33.7420415,15.5656498 C33.7448831,15.5705447 33.7475894,15.5753074 33.750431,15.5802023 C34.6715136,17.1477743 35.27109,18.8976498 35.500312,20.6915798 C35.5220975,20.8618444 35.691646,24.1036187 35.6119461,24.1036187 C35.5499722,24.1003113 35.4875925,24.0987237 35.4250774,24.0983268 C35.4172292,24.0983268 35.4095163,24.0977977 35.4016681,24.0977977 L27.3638794,24.0977977 C26.2532219,24.09793 25.2065679,24.5752529 24.4926511,25.4076576 Z M34.4050802,32.4459222 C34.0359436,32.5721323 33.642721,32.6398677 33.2515281,32.6401323 L29.5148312,32.6401323 C29.1987377,32.6401323 28.8914395,32.5987237 28.5987553,32.5206693 C27.3304569,32.182786 26.3371166,31.1577588 26.0984226,29.839035 L25.7724512,28.0376965 C25.6889624,27.576249 25.817646,27.1055409 26.1256208,26.7464903 C26.4335955,26.3874397 26.8852737,26.1814553 27.364556,26.1814553 C27.364556,26.1814553 35.4022093,26.1814553 35.4061334,26.1815875 C35.801927,26.1823813 36.1891957,26.3296265 36.4826918,26.5886615 C36.4891869,26.5944825 36.4962232,26.599642 36.5027183,26.605463 C36.8466866,26.9194008 37.0392384,27.3868016 37.0156938,27.8503658 C37.0125816,27.9130739 37.0054099,27.9755175 36.9941789,28.0375642 L36.6680721,29.8389027 C36.4529227,31.0283735 35.5736522,32.0463891 34.4050802,32.4459222 Z"></path>
                        </g>
                    </g>
                </g>
            </g>
        </g>
    </g>
</svg>