<?xml version="1.0" encoding="UTF-8"?>
<svg width="12px" height="22px" viewBox="0 0 12 22" version="1.1" xmlns="http://www.w3.org/2000/svg" xmlns:xlink="http://www.w3.org/1999/xlink">
    <!-- Generator: Sketch 43.1 (39012) - http://www.bohemiancoding.com/sketch -->
    <title>facebook-icon</title>
    <desc>Created with Sketch.</desc>
    <defs></defs>
    <g id="Homepage" stroke="none" stroke-width="1" fill="none" fill-rule="evenodd">
        <g id="Home" transform="translate(-336.000000, -2455.000000)" fill="#FFFFFF">
            <g id="Section-(4)" transform="translate(16.000000, 1935.000000)">
                <g id="Section" transform="translate(301.000000, 118.000000)">
                    <g id="Text">
                        <g id="Group-2" transform="translate(0.000000, 212.000000)">
                            <g id="Group-3" transform="translate(0.000000, 176.000000)">
                                <g id="facebook">
                                    <path d="M30.4464176,14.0045775 L27.5935104,14 C24.388367,14 22.3170625,16.1250897 22.3170625,19.4142297 L22.3170625,21.9105521 L19.4485919,21.9105521 C19.200722,21.9105521 19,22.111503 19,22.3593729 L19,25.9762596 C19,26.2241295 19.2009509,26.4248515 19.4485919,26.4248515 L22.3170625,26.4248515 L22.3170625,35.5514081 C22.3170625,35.799278 22.5177845,36 22.7656544,36 L26.5081926,36 C26.7560625,36 26.9567845,35.7990491 26.9567845,35.5514081 L26.9567845,26.4248515 L30.3106957,26.4248515 C30.5585656,26.4248515 30.7592876,26.2241295 30.7592876,25.9762596 L30.7606608,22.3593729 C30.7606608,22.2403587 30.713284,22.1263797 30.6292875,22.0421543 C30.5452909,21.9579289 30.4308542,21.9105521 30.31184,21.9105521 L26.9567845,21.9105521 L26.9567845,19.7943884 C26.9567845,18.7772749 27.1991615,18.2609365 28.5241097,18.2609365 L30.4459599,18.2602499 C30.6936009,18.2602499 30.8943229,18.059299 30.8943229,17.811658 L30.8943229,14.4531694 C30.8943229,14.2057572 30.6938298,14.0050352 30.4464176,14.0045775 L30.4464176,14.0045775 Z" id="facebook-icon"></path>
                                </g>
                            </g>
                        </g>
                    </g>
                </g>
            </g>
        </g>
    </g>
</svg>