<?xml version="1.0" encoding="UTF-8"?>
<svg width="75px" height="54px" viewBox="0 0 75 54" version="1.1" xmlns="http://www.w3.org/2000/svg" xmlns:xlink="http://www.w3.org/1999/xlink">
    <!-- Generator: Sketch 43.1 (39012) - http://www.bohemiancoding.com/sketch -->
    <title>Fill 5241</title>
    <desc>Created with Sketch.</desc>
    <defs></defs>
    <g id="Homepage" stroke="none" stroke-width="1" fill="none" fill-rule="evenodd">
        <g id="Home" transform="translate(-251.000000, -680.000000)" fill="#009CDE">
            <g id="Section-(2)" transform="translate(79.000000, 612.000000)">
                <g id="1" transform="translate(23.000000, 68.000000)">
                    <path d="M186.5,37.2733345 L167.29375,27.2584143 L186.920313,21.8028279 C187.75,21.570177 188.235938,20.7098369 188.00625,19.8791638 C187.771875,19.0469292 186.914063,18.5675746 186.079688,18.7924185 L163.2375,25.1442575 L153.940625,20.2976232 L186.5,3.32191187 L219.059375,20.2976232 L186.5,37.2733345 Z M166.1875,47.1133761 C166.1875,48.8340562 164.785937,50.2362075 163.0625,50.2362075 C161.339062,50.2362075 159.9375,48.8340562 159.9375,47.1133761 C159.9375,45.3911346 161.339062,43.9905448 163.0625,43.9905448 C164.785937,43.9905448 166.1875,45.3911346 166.1875,47.1133761 L166.1875,47.1133761 Z M223.160938,18.9126475 L187.223438,0.175659264 C186.76875,-0.0585530881 186.23125,-0.0585530881 185.776562,0.175659264 L149.839062,18.9126475 C149.323437,19.1827724 149,19.7152151 149,20.2976232 C149,20.8800312 149.323437,21.412474 149.839062,21.6825989 L161.5,27.7611901 L161.5,41.0894344 C158.810937,41.7873872 156.8125,44.2107044 156.8125,47.1133761 C156.8125,50.5578591 159.615625,53.3590389 163.0625,53.3590389 C166.509375,53.3590389 169.3125,50.5578591 169.3125,47.1133761 C169.3125,44.2107044 167.314063,41.7873872 164.625,41.0894344 L164.625,29.3913081 L185.776562,40.4195871 C186.004687,40.5366933 186.251562,40.5960271 186.5,40.5960271 C186.748438,40.5960271 186.995313,40.5366933 187.223438,40.4195871 L208.375,29.3913081 L208.375,34.3503643 C208.375,39.254771 200.8625,48.4031055 186.503125,48.4031055 C183.145313,48.4031055 179.7,47.9096981 175.973437,46.8963393 C175.142188,46.6652498 174.282813,47.1602186 174.054687,47.9924532 C173.828125,48.8246877 174.31875,49.6834663 175.151563,49.9098716 C179.151563,50.9966169 182.864062,51.5259368 186.503125,51.5259368 C201.990625,51.5259368 211.5,41.5219466 211.5,34.3503643 L211.5,27.7611901 L223.160938,21.6825989 C223.676563,21.412474 224,20.8800312 224,20.2976232 C224,19.7152151 223.676563,19.1827724 223.160938,18.9126475 L223.160938,18.9126475 Z" id="Fill-5241"></path>
                </g>
            </g>
        </g>
    </g>
</svg>