<?xml version="1.0" encoding="UTF-8"?>
<svg width="66px" height="57px" viewBox="0 0 66 57" version="1.1" xmlns="http://www.w3.org/2000/svg" xmlns:xlink="http://www.w3.org/1999/xlink">
    <!-- Generator: Sketch 43.1 (39012) - http://www.bohemiancoding.com/sketch -->
    <title>group</title>
    <desc>Created with Sketch.</desc>
    <defs></defs>
    <g id="Homepage" stroke="none" stroke-width="1" fill="none" fill-rule="evenodd">
        <g id="Home" transform="translate(-366.000000, -959.000000)" fill="#009CDE">
            <g id="Section-(2)" transform="translate(79.000000, 612.000000)">
                <g id="4" transform="translate(141.000000, 347.000000)">
                    <g id="group" transform="translate(146.000000, 0.000000)">
                        <path d="M65.4267237,52.5412823 L62.8279145,43.5928952 C62.7660381,43.4090242 62.6422852,43.2251532 62.5185324,43.1025726 C60.9097458,38.2606371 56.9496555,34.5219274 51.9376663,33.2348306 L51.1951494,33.11225 C50.081374,32.8057984 48.8438458,33.1735403 48.0394525,34.0928952 C45.3168904,37.1574113 41.8518115,37.4025726 38.2011033,37.4025726 C34.5503951,37.4025726 31.0853161,37.1574113 28.3627541,34.0928952 C27.5583608,33.1735403 26.3208326,32.8057984 25.2070572,33.11225 L24.4645403,33.296121 C20.6900793,34.2767661 17.472506,36.6670887 15.4305844,39.8541855 L7.63415677,39.8541855 C7.57228036,39.8541855 7.57228036,39.8541855 7.51040395,39.7928952 C7.51040395,39.7316048 7.44852754,39.6703145 7.44852754,39.5477339 L9.0573142,33.8477339 C10.4804716,29.3735403 13.2030337,28.0251532 18.5244049,26.6767661 C18.7719106,26.6154758 18.9575398,26.4928952 19.0812926,26.3703145 C19.5144275,26.7380565 20.0094388,27.0445081 20.50445,27.2896694 C20.6900793,27.41225 20.8757085,27.41225 21.0613377,27.41225 C21.4944726,27.41225 21.9276075,27.1670887 22.1751131,26.7380565 C22.4844952,26.1251532 22.2369895,25.3896694 21.6182254,25.0832177 C18.7719106,23.61225 16.729989,19.4445081 16.729989,15.1541855 C16.729989,11.3541855 19.8856859,8.22837903 23.7220234,8.22837903 C24.4645403,8.22837903 25.1451808,8.35095968 25.8258213,8.53483065 C25.1451808,10.1896694 24.7739223,11.9670887 24.7739223,13.8670887 C24.7739223,24.3477339 31.1471926,33.1735403 38.6961146,33.1735403 C46.1212838,33.1735403 52.6801832,24.1638629 52.6801832,13.8670887 C52.6801832,6.20579839 46.4306658,0.0154758065 38.6961146,0.0154758065 C33.8078782,0.0154758065 29.4765295,2.52837903 27.0014731,6.32837903 C25.9495741,5.9606371 24.8357987,5.77676613 23.7220234,5.77676613 C20.3806972,5.77676613 17.4106295,7.55418548 15.7399665,10.1896694 C15.6162137,10.0670887 15.4924608,10.0057984 15.368708,9.94450806 C14.4405619,9.45418548 13.5124157,9.27031452 12.4605167,9.27031452 C8.99543779,9.20902419 6.21099934,11.9670887 6.21099934,15.3993468 C6.21099934,17.3606371 6.76788703,19.1993468 7.63415677,20.6703145 C4.78784191,21.4057984 2.2509091,22.5090242 1.07525731,26.2477339 L0.0852347547,29.8025726 C-0.100394475,30.4154758 0.0233583448,31.0896694 0.394616805,31.5799919 C0.765875264,32.1316048 1.44651577,32.4380565 2.12715628,32.4380565 L6.89163985,32.4380565 C6.82976344,32.6832177 6.70601062,32.928379 6.64413421,33.1735403 L5.03534755,38.9348306 C4.78784191,39.7316048 4.97347114,40.5896694 5.53035883,41.2638629 C6.02537011,41.9380565 6.76788703,42.3057984 7.63415677,42.3057984 L14.1930562,42.3057984 C14.007427,42.7348306 13.8836742,43.1638629 13.7599214,43.5928952 L11.1611121,52.6025726 C10.9136065,53.6445081 11.0992357,54.7477339 11.7798762,55.6057984 C12.4605167,56.4638629 13.4505393,56.9541855 14.5024383,56.9541855 L51.6282843,56.9541855 L53.7320822,56.9541855 L62.0853975,56.9541855 C63.1372965,56.9541855 64.1891955,56.4638629 64.8079596,55.6057984 C65.4886001,54.7477339 65.7361057,53.6445081 65.4267237,52.5412823 Z M28.4865069,8.71870161 C28.5483833,8.65741129 28.6102597,8.59612097 28.6721362,8.47354032 C28.7340126,8.41225 28.7340126,8.28966935 28.795889,8.22837903 C30.7140577,4.79612097 34.4266423,2.46708871 38.6961146,2.46708871 C43.8318566,2.46708871 48.1632053,5.83805645 49.6482391,10.4348306 C47.4825648,10.8638629 45.1931376,10.0057984 43.8318566,8.16708871 C43.3987217,7.61547581 42.6562048,7.49289516 42.0993171,7.92192742 C41.8518115,8.10579839 41.7280587,8.28966935 41.6661823,8.53483065 C41.6043058,8.59612097 41.6043058,8.65741129 41.5424294,8.71870161 C39.80989,12.21225 33.9935074,13.6832177 27.3727316,12.396121 C27.5583608,11.1090242 27.9296192,9.88321774 28.4865069,8.71870161 Z M31.9515859,15.2767661 C36.9016987,15.2767661 40.9855417,13.7445081 43.0893397,10.8638629 C44.6362499,12.21225 46.5544186,12.9477339 48.5963402,12.9477339 C49.0913514,12.9477339 49.6482391,12.8864435 50.1432504,12.7638629 C50.2051268,13.1316048 50.2051268,13.4380565 50.2051268,13.8057984 C50.2051268,22.8154758 44.8218792,30.7219274 38.6961146,30.7219274 C32.8178556,30.7219274 27.6821136,23.428379 27.2489787,14.8477339 C28.8577654,15.1541855 30.466552,15.2767661 31.9515859,15.2767661 Z M2.62216756,29.9864435 L3.4884373,26.9219274 C4.23095422,24.4090242 5.77786447,23.6735403 8.87168497,22.9380565 C9.0573142,22.8767661 9.24294343,22.8154758 9.36669625,22.6928952 C9.6760783,22.9380565 9.92358394,23.1219274 10.2948424,23.3057984 C10.4804716,23.428379 10.6661009,23.428379 10.8517301,23.428379 C11.284865,23.428379 11.7179998,23.1832177 11.9655055,22.7541855 C12.2748875,22.1412823 12.0273819,21.4057984 11.4704942,21.0993468 C9.86170753,20.2412823 8.68605574,17.8509597 8.68605574,15.3993468 C8.68605574,13.3154758 10.3567188,11.6606371 12.4605167,11.6606371 C13.1411573,11.6606371 13.6980449,11.7832177 14.2549326,12.0896694 C14.4405619,12.1509597 14.5643147,12.21225 14.7499439,12.21225 C14.4405619,13.1316048 14.2549326,14.11225 14.2549326,15.1541855 C14.2549326,18.6477339 15.4305844,22.0799919 17.2868767,24.4703145 C13.5742921,25.3896694 10.2948424,26.6154758 8.12916805,29.9864435 L2.62216756,29.9864435 Z M62.8897909,54.1348306 C62.7660381,54.2574113 62.5185324,54.5025726 62.0853975,54.5025726 L53.7320822,54.5025726 L51.6282843,54.5025726 L14.5024383,54.5025726 C14.0693034,54.5025726 13.8217978,54.2574113 13.6980449,54.1348306 C13.5124157,53.8896694 13.4505393,53.5219274 13.5124157,53.2767661 L16.1112249,44.328379 C17.3487531,40.0993468 20.7519557,36.7896694 25.0833044,35.6864435 L25.8258213,35.5025726 C26.0114505,35.4412823 26.3208326,35.5638629 26.5064618,35.7477339 C29.9096644,39.6090242 34.1172602,39.9154758 38.2011033,39.9154758 C42.2849464,39.9154758 46.4925422,39.6090242 49.8957448,35.7477339 C50.081374,35.5638629 50.3288796,35.4412823 50.6382617,35.5025726 L51.3807786,35.6864435 C55.6502509,36.7896694 59.1153299,40.0993468 60.3528581,44.328379 L61.4666334,48.128379 C61.5285099,48.31225 61.5903863,48.4348306 61.7141391,48.5574113 L63.0754201,53.2154758 C63.1372965,53.5219274 63.0754201,53.8896694 62.8897909,54.1348306 Z" id="Shape" fill-rule="nonzero"></path>
                        <path d="M32.8550645,20.3286713 C33.4173811,20.3286713 33.8756794,19.941538 33.8849483,19.4598309 C34.0795964,19.439502 34.4040098,19.4421536 34.6347037,19.4439213 L34.9148321,19.4448052 L35.1949605,19.4439213 C35.4266844,19.4421536 35.7500679,19.439502 35.9447159,19.4598309 C35.9539849,19.941538 36.4122831,20.3286713 36.9745997,20.3286713 C37.5430955,20.3286713 38.0044835,19.9326993 38.0044835,19.4448052 C38.0044835,18.9180209 37.8201343,18.4937652 37.4576152,18.1852959 C36.8468941,17.6646987 35.9982699,17.6717697 35.1784824,17.676189 L34.9148321,17.6770729 L34.6511819,17.676189 C33.8293346,17.6682342 32.9827701,17.6646987 32.3720491,18.1852959 C32.00953,18.4937652 31.8251808,18.9180209 31.8251808,19.4448052 C31.8251808,19.9326993 32.2865687,20.3286713 32.8550645,20.3286713" id="Fill-1271"></path>
                        <path d="M43.1539024,17.6770729 L42.8902521,17.676189 C42.0714945,17.6682342 41.2218404,17.6646987 40.6111193,18.1852959 C40.2486002,18.4937652 40.064251,18.9180209 40.064251,19.4448052 C40.064251,19.9326993 40.525639,20.3286713 41.0941348,20.3286713 C41.6564514,20.3286713 42.1147497,19.941538 42.1240186,19.4598309 C42.3176368,19.439502 42.6410203,19.4421536 42.873774,19.4439213 L43.1539024,19.4448052 L43.4340308,19.4439213 C43.6657546,19.4421536 43.9881083,19.439502 44.1837862,19.4598309 C44.1930551,19.941538 44.6513534,20.3286713 45.21367,20.3286713 C45.7821658,20.3286713 46.2435537,19.9326993 46.2435537,19.4448052 C46.2435537,18.9180209 46.0592045,18.4937652 45.6966855,18.1852959 C45.0859644,17.6646987 44.2342505,17.6717697 43.4175526,17.676189 L43.1539024,17.6770729 Z" id="Fill-1272"></path>
                    </g>
                </g>
            </g>
        </g>
    </g>
</svg>