<?xml version="1.0" encoding="UTF-8"?>
<svg width="64px" height="68px" viewBox="0 0 64 68" version="1.1" xmlns="http://www.w3.org/2000/svg" xmlns:xlink="http://www.w3.org/1999/xlink">
    <!-- Generator: Sketch 43.1 (39012) - http://www.bohemiancoding.com/sketch -->
    <title>destination</title>
    <desc>Created with Sketch.</desc>
    <defs></defs>
    <g id="Homepage" stroke="none" stroke-width="1" fill="none" fill-rule="evenodd">
        <g id="Home" transform="translate(-1027.000000, -948.000000)" fill-rule="nonzero" fill="#009CDE">
            <g id="Section-(2)" transform="translate(79.000000, 612.000000)">
                <g id="5" transform="translate(787.000000, 336.000000)">
                    <g id="destination" transform="translate(161.000000, 0.000000)">
                        <path d="M54.3136753,51.2670859 C53.7880808,50.9925625 53.1369732,51.1911172 52.8591762,51.70975 C52.7958143,51.8280859 52.7312417,51.9454922 52.6662654,52.0625 L48.3541573,52.0625 C48.8298425,50.7782031 49.2358431,49.4405156 49.5669125,48.0562109 C49.7034567,47.4851172 49.345213,46.9129609 48.7667496,46.7780234 C48.1884208,46.6434844 47.6086121,46.9968984 47.4720679,47.5679922 C47.1003715,49.1222969 46.6190362,50.6275938 46.04138,52.0625 L37.7746002,52.0625 C38.3630185,48.3703125 38.6873616,44.3535313 38.7364637,40.375 L44.1246483,40.375 C44.7189858,40.375 45.2008592,39.8992656 45.2008592,39.3125 C45.2008592,38.7257344 44.7189858,38.25 44.1246483,38.25 L38.7364637,38.25 C38.6825187,33.8863125 38.2972351,29.4768047 37.5959492,25.5 L45.6022859,25.5 C46.0942488,26.6081875 46.5317286,27.7749453 46.9085369,28.9953594 C47.0499241,29.4534297 47.4765072,29.7484063 47.9375291,29.7484063 C48.0413835,29.7484063 48.1471212,29.7335313 48.2516482,29.7019219 C48.8201566,29.5308594 49.1405984,28.9370547 48.9673284,28.3759219 C48.6611464,27.3840781 48.3166244,26.4247734 47.9372601,25.5 L52.0405833,25.5 C52.1494151,25.6761094 52.2586505,25.8519531 52.363312,26.0307188 C52.5628146,26.3711172 52.924287,26.5613047 53.2958488,26.5613047 C53.4788047,26.5613047 53.6640475,26.5152188 53.8338198,26.4183984 C54.3482486,26.1244844 54.5240745,25.4746328 54.2263677,24.966625 C54.0857876,24.7267656 53.9406337,24.4898281 53.7931928,24.2543516 C53.7428799,23.9686719 53.5776816,23.7220391 53.3453545,23.5634609 C50.9024902,19.8996953 47.6281185,16.8139297 43.7918301,14.5816172 C39.3439848,11.9932344 34.2489332,10.625 29.0576952,10.625 C26.7929438,10.625 24.5369367,10.8833203 22.352363,11.3927891 C21.7738996,11.5278594 21.4157904,12.1000156 21.5524692,12.6711094 C21.689148,13.2423359 22.2690912,13.5954844 22.8472855,13.4609453 C23.5454773,13.2979844 24.2521443,13.1649063 24.9639234,13.0577266 C23.2075471,15.3448906 21.8591893,19.0562031 20.9286705,23.3748672 L12.0898846,23.3748672 C11.9225338,23.3348906 11.7516853,23.3370156 11.5902537,23.3748672 L7.53361106,23.3748672 C7.80051138,23.0235781 8.0756178,22.6777344 8.36081369,22.3390625 C8.74085068,21.8878984 8.67843045,21.2179922 8.22144438,20.8426641 C7.76459284,20.4678672 7.08590732,20.5292266 6.70587033,20.9802578 C6.00956186,21.8068828 5.3643734,22.6696328 4.77070854,23.5625313 C4.53542193,23.7228359 4.36901281,23.9731875 4.32044879,24.2631172 C1.515305,28.7620078 0,33.9804766 0,39.3125 C0,46.9751172 3.02253841,54.1792656 8.51081059,59.5976172 C13.9990828,65.0159688 21.296062,68 29.0576952,68 C39.8596244,68 49.7089723,62.1384531 54.7620517,52.7029219 C55.0398486,52.1841563 54.8391353,51.5413438 54.3136753,51.2670859 Z M45.0896059,54.1875 C43.8313808,56.7248828 42.255808,58.9749922 40.4397021,60.789875 C38.3128402,62.9151406 35.9380462,64.3991875 33.4268426,65.1947344 C35.1723222,62.7148594 36.5044022,58.7828125 37.3988681,54.1875 L45.0896059,54.1875 Z M37.1817425,23.375 C36.2944066,19.2390859 35.0369886,15.7188906 33.4283223,13.4322578 C37.8758986,14.8408672 41.8156377,18.3654453 44.5533838,23.375 L37.1817425,23.375 Z M42.6992069,16.4123047 C45.7681569,18.1981016 48.4480567,20.5743828 50.5801651,23.375 L46.9733786,23.375 C45.4346661,20.2908281 43.4795944,17.6695078 41.2309861,15.6202109 C41.727792,15.8692344 42.2180061,16.1323359 42.6992069,16.4123047 Z M24.5606133,18.4436719 C25.8947113,14.8784531 27.5758873,12.75 29.0576952,12.75 C30.7930853,12.75 32.6843915,15.4943047 34.1169628,20.0910781 C34.4375392,21.1198438 34.7286542,22.2186016 34.9901735,23.375 L23.1276384,23.375 C23.5375403,21.5546719 24.0180685,19.8938516 24.5606133,18.4436719 Z M20.5427143,35.0602422 C21.1370518,35.0957031 21.6458305,34.6489219 21.6813455,34.0632188 C21.8655121,31.0300469 22.2109758,28.1339375 22.6944635,25.4998672 L35.4245591,25.4998672 C36.1304189,29.3365547 36.5302313,33.6914766 36.5841764,38.2498672 L31.2101171,38.2498672 C30.6157796,38.2498672 30.1339062,38.7256016 30.1339062,39.3123672 C30.1339062,39.8991328 30.6157796,40.3748672 31.2101171,40.3748672 L36.5843109,40.3748672 C36.5353433,44.5174219 36.2007762,48.4921016 35.6104745,52.0623672 L31.2101171,52.0623672 C30.6157796,52.0623672 30.1339062,52.5381016 30.1339062,53.1248672 C30.1339062,53.7116328 30.6157796,54.1873672 31.2101171,54.1873672 L35.2185992,54.1873672 C34.9021932,55.7376875 34.5343981,57.1946406 34.1170973,58.5337891 C32.6843915,63.1306953 30.7930853,65.875 29.0576952,65.875 C27.604945,65.875 26.0097313,63.9148203 24.6811489,60.4972891 C24.4681937,59.9493047 23.8456057,59.6762422 23.2908189,59.8859531 C22.7358977,60.0961953 22.4587733,60.7108516 22.6717286,61.2585703 C23.3278137,62.9462188 24.0147053,64.2277266 24.7013279,65.1975234 C19.8659122,63.6680547 15.717119,59.6492813 13.0136771,54.1825859 C13.5614685,54.1331797 13.9907421,53.6788281 13.9907421,53.125 C13.9907421,52.5382344 13.5088687,52.0625 12.9145312,52.0625 L12.0679568,52.0625 C10.6674028,48.5675391 9.82459509,44.5963125 9.70284873,40.375 L11.8383203,40.375 C12.4326578,40.375 12.9145312,39.8992656 12.9145312,39.3125 C12.9145312,38.7257344 12.4326578,38.25 11.8383203,38.25 L9.70244515,38.25 C9.8333393,33.7278672 10.7997767,29.3550156 12.5199654,25.5 L20.5128495,25.5 C20.0343392,28.1999453 19.7067675,31.0710859 19.5328249,33.93625 C19.4973099,34.5219531 19.9493185,35.0253125 20.5427143,35.0602422 Z M2.17582946,40.375 L7.54948518,40.375 C7.66100753,44.4913906 8.4185255,48.4583672 9.75867717,52.0625 L5.46069428,52.0625 C3.51557754,48.5675391 2.3449291,44.5963125 2.17582946,40.375 Z M10.1831079,25.5 C8.57417251,29.4074766 7.67150059,33.7639922 7.54854349,38.25 L2.17488777,38.25 C2.35891984,33.7321172 3.7127932,29.3370859 6.07669051,25.5 L10.1831079,25.5 Z M6.77757288,54.1875 L10.6368653,54.1875 C11.5002555,56.0832656 12.5339561,57.8576406 13.729761,59.4731719 C14.707095,60.7934609 15.7643378,61.9697813 16.8861531,62.9974844 C12.8101387,60.9475234 9.33021069,57.9022656 6.77757288,54.1875 Z M41.1820185,63.0346719 C41.4482462,62.7925547 41.7113798,62.5426016 41.9707466,62.2834844 C44.2067094,60.0491797 46.0657292,57.3079297 47.4810811,54.1876328 L51.3534226,54.1876328 C48.7495303,57.9944375 45.2344908,61.0173828 41.1820185,63.0346719 Z" id="Shape"></path>
                        <path d="M11.2127727,21.0521094 C11.4000334,21.184125 11.6191768,21.25 11.8383203,21.25 C12.061634,21.25 12.2849478,21.1814687 12.4740919,21.0448047 C12.7996457,20.8094609 20.4480077,15.2041094 20.4480077,8.5 C20.4480077,3.81304687 16.5857558,0 11.8383203,0 C7.09088479,0 3.2286328,3.81304687 3.2286328,8.5 C3.2286328,15.3430312 10.8868153,20.8222109 11.2127727,21.0521094 Z M11.8383203,2.125 C15.3988296,2.125 18.2955859,4.98471875 18.2955859,8.5 C18.2955859,13.1132422 13.5676567,17.4130469 11.8314594,18.8361328 C10.0937823,17.4374844 5.38105467,13.2095313 5.38105467,8.5 C5.38105467,4.98471875 8.27781093,2.125 11.8383203,2.125 Z" id="Shape"></path>
                        <path d="M16.143164,8.5 C16.143164,7.91323438 15.6612906,7.4375 15.0669531,7.4375 C14.4726156,7.4375 13.9907421,7.91323438 13.9907421,8.5 C13.9907421,9.67167188 13.0251119,10.625 11.8383203,10.625 C10.6515287,10.625 9.68589841,9.67167188 9.68589841,8.5 C9.68589841,7.32832813 10.6515287,6.375 11.8383203,6.375 C12.4326578,6.375 12.9145312,5.89926563 12.9145312,5.3125 C12.9145312,4.72573438 12.4326578,4.25 11.8383203,4.25 C9.46460253,4.25 7.53347654,6.15652344 7.53347654,8.5 C7.53347654,10.8434766 9.46460253,12.75 11.8383203,12.75 C14.212038,12.75 16.143164,10.8434766 16.143164,8.5 Z" id="Shape"></path>
                        <path d="M54.8867576,28.6875 C50.1393222,28.6875 46.2770702,32.5005469 46.2770702,37.1875 C46.2770702,44.0305313 53.9352526,49.5097109 54.26121,49.7396094 C54.4484707,49.871625 54.6676142,49.9375 54.8867576,49.9375 C55.1100714,49.9375 55.3333852,49.8689688 55.5225292,49.7323047 C55.8480831,49.4969609 63.4964451,43.8916094 63.4964451,37.1875 C63.4964451,32.5005469 59.6341931,28.6875 54.8867576,28.6875 Z M54.8798968,47.5236328 C53.1422197,46.1249844 48.429492,41.8970313 48.429492,37.1875 C48.429492,33.6722188 51.3262483,30.8125 54.8867576,30.8125 C58.447267,30.8125 61.3440232,33.6722188 61.3440232,37.1875 C61.3440232,41.8007422 56.6160941,46.1005469 54.8798968,47.5236328 Z" id="Shape"></path>
                        <path d="M58.1153904,36.125 C57.5210529,36.125 57.0391795,36.6007344 57.0391795,37.1875 C57.0391795,38.3591719 56.0735492,39.3125 54.8867576,39.3125 C53.699966,39.3125 52.7343358,38.3591719 52.7343358,37.1875 C52.7343358,36.0158281 53.699966,35.0625 54.8867576,35.0625 C55.4810951,35.0625 55.9629686,34.5867656 55.9629686,34 C55.9629686,33.4132344 55.4810951,32.9375 54.8867576,32.9375 C52.5130399,32.9375 50.5819139,34.8440234 50.5819139,37.1875 C50.5819139,39.5309766 52.5130399,41.4375 54.8867576,41.4375 C57.2604754,41.4375 59.1916014,39.5309766 59.1916014,37.1875 C59.1916014,36.6007344 58.7097279,36.125 58.1153904,36.125 Z" id="Shape"></path>
                        <path d="M12.9145312,45.6875 C12.9145312,52.5305312 20.5727137,58.0097109 20.8986711,58.2396094 C21.0859318,58.371625 21.3050752,58.4375 21.5242187,58.4375 C21.7475324,58.4375 21.9708462,58.3689687 22.1599903,58.2323047 C22.4855441,57.9969609 30.1339062,52.3916094 30.1339062,45.6875 C30.1339062,41.0005469 26.2716542,37.1875 21.5242187,37.1875 C16.7767832,37.1875 12.9145312,41.0005469 12.9145312,45.6875 Z M21.5242187,39.3125 C25.084728,39.3125 27.9814843,42.1722187 27.9814843,45.6875 C27.9814843,50.3007422 23.2535551,54.6005469 21.5173578,56.0236328 C19.7796808,54.6249844 15.0669531,50.3970312 15.0669531,45.6875 C15.0669531,42.1722187 17.9637093,39.3125 21.5242187,39.3125 Z" id="Shape"></path>
                        <path d="M21.5242187,49.9375 C23.8979364,49.9375 25.8290624,48.0309766 25.8290624,45.6875 C25.8290624,45.1007344 25.347189,44.625 24.7528515,44.625 C24.158514,44.625 23.6766405,45.1007344 23.6766405,45.6875 C23.6766405,46.8591719 22.7110103,47.8125 21.5242187,47.8125 C20.3374271,47.8125 19.3717968,46.8591719 19.3717968,45.6875 C19.3717968,44.5158281 20.3374271,43.5625 21.5242187,43.5625 C22.1185562,43.5625 22.6004296,43.0867656 22.6004296,42.5 C22.6004296,41.9132344 22.1185562,41.4375 21.5242187,41.4375 C19.1505009,41.4375 17.2193749,43.3440234 17.2193749,45.6875 C17.2193749,48.0309766 19.1505009,49.9375 21.5242187,49.9375 Z" id="Shape"></path>
                    </g>
                </g>
            </g>
        </g>
    </g>
</svg>