<?xml version="1.0" encoding="UTF-8"?>
<svg width="22px" height="18px" viewBox="0 0 22 18" version="1.1" xmlns="http://www.w3.org/2000/svg" xmlns:xlink="http://www.w3.org/1999/xlink">
    <!-- Generator: Sketch 43.1 (39012) - http://www.bohemiancoding.com/sketch -->
    <title>twitter-icon</title>
    <desc>Created with Sketch.</desc>
    <defs></defs>
    <g id="Homepage" stroke="none" stroke-width="1" fill="none" fill-rule="evenodd">
        <g id="Home" transform="translate(-401.000000, -2457.000000)" fill="#FFFFFF">
            <g id="Section-(4)" transform="translate(16.000000, 1935.000000)">
                <g id="Section" transform="translate(301.000000, 118.000000)">
                    <g id="Text">
                        <g id="Group-2" transform="translate(0.000000, 212.000000)">
                            <g id="Group-3" transform="translate(0.000000, 176.000000)">
                                <g id="twitter" transform="translate(70.000000, 0.000000)">
                                    <path d="M36,18.1143401 C35.1902765,18.4731348 34.3214548,18.7164652 33.4085971,18.8250994 C34.3406868,18.2669383 35.0541782,17.3816166 35.3923389,16.3299286 C34.5180172,16.8468216 33.5529274,17.2221523 32.5246054,17.4256167 C31.7011498,16.547161 30.5298636,16 29.2307112,16 C26.7383084,16 24.7174325,18.0208759 24.7174325,20.5119126 C24.7174325,20.8652073 24.7572986,21.21027 24.8342987,21.5402345 C21.0840116,21.3518682 17.7585192,19.5550908 15.532813,16.8248216 C15.1437502,17.4902149 14.9224198,18.2655364 14.9224198,19.0931619 C14.9224198,20.6590109 15.7197773,22.0406275 16.9295636,22.8489491 C16.1899382,22.824217 15.4943129,22.6207526 14.8853217,22.282556 L14.8853217,22.3389221 C14.8853217,24.5247623 16.4415367,26.3490398 18.5050106,26.7642365 C18.1269479,26.8659687 17.7282871,26.9223348 17.3158584,26.9223348 C17.0244298,26.9223348 16.7425993,26.8934688 16.4662687,26.8384687 C17.0408939,28.6325141 18.707109,29.9371306 20.6812527,29.9728986 C19.1374038,31.1826849 17.1907601,31.9016763 15.0764201,31.9016763 C14.7121253,31.9016763 14.3532947,31.8796763 14,31.8398102 C15.9975098,33.1224626 18.3689483,33.87032 20.9177172,33.87032 C29.219783,33.87032 33.7578297,26.993835 33.7578297,21.0302076 L33.7426957,20.4459484 C34.6293834,19.8135193 35.3964729,19.0189298 36,18.1143401 L36,18.1143401 Z" id="twitter-icon"></path>
                                </g>
                            </g>
                        </g>
                    </g>
                </g>
            </g>
        </g>
    </g>
</svg>