<?xml version="1.0" encoding="UTF-8"?>
<svg width="26px" height="15px" viewBox="0 0 26 15" version="1.1" xmlns="http://www.w3.org/2000/svg" xmlns:xlink="http://www.w3.org/1999/xlink">
    <!-- Generator: Sketch 43.1 (39012) - http://www.bohemiancoding.com/sketch -->
    <title>Fill 4</title>
    <desc>Created with Sketch.</desc>
    <defs></defs>
    <g id="Homepage" stroke="none" stroke-width="1" fill="none" fill-rule="evenodd">
        <g id="Home" transform="translate(-469.000000, -2459.000000)" fill="#FFFFFF">
            <g id="Section-(4)" transform="translate(16.000000, 1935.000000)">
                <g id="Section" transform="translate(301.000000, 118.000000)">
                    <g id="Text">
                        <g id="Group-2" transform="translate(0.000000, 212.000000)">
                            <g id="Group-3" transform="translate(0.000000, 176.000000)">
                                <g id="vk" transform="translate(140.000000, 0.000000)">
                                    <path d="M24.7210561,31.9953034 L26.2751033,31.9953034 C26.2751033,31.9953034 26.744412,31.9462905 26.9843765,31.7016596 C27.2049314,31.4768074 27.1978817,31.0548624 27.1978817,31.0548624 C27.1978817,31.0548624 27.1674856,29.0790774 28.1351258,28.7881228 C29.089399,28.5013321 30.3144906,30.6976319 31.6129174,31.5422158 C32.5948401,32.1811188 33.3410098,32.0412802 33.3410098,32.0412802 L36.8132166,31.9953034 C36.8132166,31.9953034 38.6294761,31.8891232 37.7682223,30.5360193 C37.6977253,30.4255017 37.2665033,29.5351146 35.1864752,27.7057611 C33.0091245,25.7910472 33.3010005,26.1008262 35.9235809,22.7888533 C37.5207503,20.7718628 38.1591603,19.5405539 37.9596629,19.0132095 C37.7695956,18.5107619 36.5947675,18.6434872 36.5947675,18.6434872 L32.6853876,18.6663888 C32.6853876,18.6663888 32.3953427,18.6290001 32.1805557,18.7507951 C31.970438,18.8699009 31.8355781,19.1481902 31.8355781,19.1481902 C31.8355781,19.1481902 31.2165777,20.7088834 30.3916711,22.0363964 C28.6508526,24.8371601 27.9546717,24.9854134 27.6701202,24.8112223 C27.0080891,24.4058463 27.1735282,23.1830388 27.1735282,22.3140785 C27.1735282,19.5997164 27.6080462,18.4679948 26.3273809,18.175045 C25.9024762,18.0778866 25.5894511,18.0136059 24.5026069,18.0031094 C23.10759,17.9896633 21.927177,18.0071865 21.2586456,18.3174861 C20.8138736,18.5238609 20.470727,18.9836282 20.6798377,19.0100865 C20.9382962,19.042704 21.5233299,19.1597278 21.8335167,19.5596386 C22.234251,20.0762262 22.2202432,21.2358808 22.2202432,21.2358808 C22.2202432,21.2358808 22.4505029,24.4310901 21.6826348,24.827878 C21.1557383,25.100095 20.4328235,24.5443838 18.8807905,22.0033452 C18.0857307,20.70177 17.4852243,19.2628718 17.4852243,19.2628718 C17.4852243,19.2628718 17.3695909,18.994038 17.1630438,18.8501222 C16.9125505,18.6757576 16.5625374,18.6204988 16.5625374,18.6204988 L12.8474363,18.6434872 C12.8474363,18.6434872 12.289869,18.6582344 12.0849699,18.8880313 C11.9026848,19.0925844 12.0704127,19.5151366 12.0704127,19.5151366 C12.0704127,19.5151366 14.978735,25.9624623 18.2721358,29.2115425 C21.2922461,32.1908347 24.7210561,31.9953034 24.7210561,31.9953034" id="Fill-4"></path>
                                </g>
                            </g>
                        </g>
                    </g>
                </g>
            </g>
        </g>
    </g>
</svg>